<svg version="1.0" xmlns="http://www.w3.org/2000/svg" width="512" height="512" viewBox="0 0 512 512">
  <g transform="translate(0.000000,512.000000) scale(0.100000,-0.100000)" fill="#0B3D2E" stroke="none">
    <path d="M2378 5115 c-2 -1 -39 -5 -83 -9 -90 -7 -144 -13 -225 -26 -30 -5 -73 -12 -95 -15 -79 -12 -271 -58 -385 -92 -705 -211 -1285 -730 -1577 -1408 -68 -159 -138 -378 -168 -530 -2 -11 -8 -40 -13 -65 -10 -44 -17 -98 -28 -195 -16 -153 -9 -570 11 -695 54 -337 150 -645 285 -917 404 -809 1142 -1375 2040 -1564 47 -10 104 -21 127 -24 24 -3 56 -8 73 -10 163 -25 597 -25 760 0 17 2 46 7 65 10 91 14 107 17 175 30 696 133 1334 542 1743 1115 101 142 227 356 282 480 126 281 216 584 250 840 3 28 8 59 10 70 6 28 6 432 0 460 -2 11 -7 47 -10 80 -33 308 -128 648 -262 930 -318 668 -874 1192 -1563 1472 -154 63 -349 124 -470 148 -19 3 -46 8 -60 10 -13 3 -52 7 -85 11 -33 3 -76 8 -95 11 -40 5 -546 13 -552 8z"/>
  </g>
</svg>